<svg xmlns="http://www.w3.org/2000/svg" xmlns:xlink="http://www.w3.org/1999/xlink" width="375" viewBox="0 0 375 375" height="375" version="1.0"><defs><clipPath id="d"><path d="M 0.238281 0.878906 L 192.960938 0.878906 L 192.960938 193 L 0.238281 193 Z M 0.238281 0.878906"/></clipPath><clipPath id="c"><path d="M0 0H193V194H0z"/></clipPath><clipPath id="e"><path d="M 33 37 L 110 37 L 110 78 L 33 78 Z M 33 37"/></clipPath><clipPath id="f"><path d="M 33.042969 41.746094 L 87.230469 19.707031 L 110.398438 76.675781 L 56.210938 98.714844 Z M 33.042969 41.746094"/></clipPath><clipPath id="g"><path d="M 33.042969 41.746094 L 87.230469 19.707031 L 110.398438 76.675781 L 56.210938 98.714844 Z M 33.042969 41.746094"/></clipPath><clipPath id="h"><path d="M 262 65 L 311 65 L 311 84 L 262 84 Z M 262 65"/></clipPath><clipPath id="i"><path d="M 261.9375 83.257812 L 262.386719 64.511719 L 311.121094 65.679688 L 310.671875 84.421875 Z M 261.9375 83.257812"/></clipPath><clipPath id="j"><path d="M 261.9375 83.257812 L 262.386719 64.511719 L 311.121094 65.679688 L 310.671875 84.421875 Z M 261.9375 83.257812"/></clipPath><clipPath id="k"><path d="M 262 285 L 349 285 L 349 331 L 262 331 Z M 262 285"/></clipPath><clipPath id="l"><path d="M 261.9375 325.804688 L 285.570312 264.984375 L 349.1875 289.703125 L 325.554688 350.523438 Z M 261.9375 325.804688"/></clipPath><clipPath id="m"><path d="M 261.9375 325.804688 L 285.570312 264.984375 L 349.1875 289.703125 L 325.554688 350.523438 Z M 261.9375 325.804688"/></clipPath><filter x="0%" y="0%" width="100%" xlink:type="simple" xlink:actuate="onLoad" height="100%" id="a" xlink:show="other"><feColorMatrix values="0 0 0 0 1 0 0 0 0 1 0 0 0 0 1 0 0 0 1 0" color-interpolation-filters="sRGB"/></filter><mask id="b"><g filter="url(#a)"><path fill-opacity=".149" d="M-37.5 -37.5H412.5V412.5H-37.5z"/></g></mask></defs><path fill="#FFF" d="M-37.5 -37.5H412.5V412.5H-37.5z"/><path fill="#FFF" d="M-37.5 -37.5H412.5V412.5H-37.5z"/><path fill="#EFEADD" d="M-37.5 -37.5H412.5V412.5H-37.5z"/><g mask="url(#b)"><g><g clip-path="url(#c)" transform="translate(138 98)"><g clip-path="url(#d)"><path fill="#024C50" d="M 179.945312 192.882812 L 12.917969 192.882812 C 6.039062 192.882812 0.433594 187.277344 0.433594 180.394531 L 0.433594 13.367188 C 0.433594 6.488281 6.039062 0.882812 12.917969 0.882812 L 179.945312 0.882812 C 186.824219 0.882812 192.433594 6.488281 192.433594 13.367188 L 192.433594 180.394531 C 192.433594 187.277344 186.824219 192.882812 179.945312 192.882812"/></g></g></g></g><path fill="#00C2CB" d="M 314.371094 287.261719 L 147.34375 287.261719 C 140.460938 287.261719 134.855469 281.65625 134.855469 274.777344 L 134.855469 107.75 C 134.855469 100.867188 140.460938 95.261719 147.34375 95.261719 L 314.371094 95.261719 C 321.25 95.261719 326.855469 100.867188 326.855469 107.75 L 326.855469 274.777344 C 326.855469 281.65625 321.25 287.261719 314.371094 287.261719"/><path fill="#E04E2D" d="M 273.046875 327.75 L 106.019531 327.75 C 99.140625 327.75 93.535156 322.144531 93.535156 315.265625 L 93.535156 148.234375 C 93.535156 141.355469 99.140625 135.75 106.019531 135.75 L 273.046875 135.75 C 279.929688 135.75 285.535156 141.355469 285.535156 148.234375 L 285.535156 315.265625 C 285.535156 322.144531 279.929688 327.75 273.046875 327.75"/><g fill="#FFF" fill-opacity=".22"><g><g><path d="M 85.984375 -52.421875 C 91.742188 -50.597656 96.253906 -47.550781 99.515625 -43.28125 C 102.773438 -39.007812 104.40625 -33.75 104.40625 -27.5 C 104.40625 -18.664062 100.972656 -11.875 94.109375 -7.125 C 87.242188 -2.375 77.238281 0 64.09375 0 L 11.953125 0 L 11.953125 -100.8125 L 61.203125 -100.8125 C 73.492188 -100.8125 82.925781 -98.457031 89.5 -93.75 C 96.082031 -89.050781 99.375 -82.664062 99.375 -74.59375 C 99.375 -69.695312 98.195312 -65.328125 95.84375 -61.484375 C 93.488281 -57.648438 90.203125 -54.628906 85.984375 -52.421875 Z M 35.140625 -83.234375 L 35.140625 -59.484375 L 58.328125 -59.484375 C 64.085938 -59.484375 68.453125 -60.488281 71.421875 -62.5 C 74.398438 -64.519531 75.890625 -67.5 75.890625 -71.4375 C 75.890625 -75.375 74.398438 -78.320312 71.421875 -80.28125 C 68.453125 -82.25 64.085938 -83.234375 58.328125 -83.234375 Z M 62.359375 -17.5625 C 68.503906 -17.5625 73.132812 -18.570312 76.25 -20.59375 C 79.375 -22.613281 80.9375 -25.734375 80.9375 -29.953125 C 80.9375 -38.304688 74.742188 -42.484375 62.359375 -42.484375 L 35.140625 -42.484375 L 35.140625 -17.5625 Z M 62.359375 -17.5625" transform="translate(134.605 286.203)"/></g></g></g><path fill="#545454" d="M 84.132812 88.777344 L 58.035156 88.777344 C 56.960938 88.777344 56.082031 87.898438 56.082031 86.824219 L 56.082031 60.726562 C 56.082031 59.652344 56.960938 58.777344 58.035156 58.777344 L 84.132812 58.777344 C 85.207031 58.777344 86.082031 59.652344 86.082031 60.726562 L 86.082031 86.824219 C 86.082031 87.898438 85.207031 88.777344 84.132812 88.777344"/><path fill="#545454" d="M 84.132812 169.511719 L 58.035156 169.511719 C 56.960938 169.511719 56.082031 168.636719 56.082031 167.5625 L 56.082031 141.464844 C 56.082031 140.390625 56.960938 139.511719 58.035156 139.511719 L 84.132812 139.511719 C 85.207031 139.511719 86.082031 140.390625 86.082031 141.464844 L 86.082031 167.5625 C 86.082031 168.636719 85.207031 169.511719 84.132812 169.511719"/><path fill="#545454" d="M 165.574219 88.777344 L 139.476562 88.777344 C 138.398438 88.777344 137.523438 87.898438 137.523438 86.824219 L 137.523438 60.726562 C 137.523438 59.652344 138.398438 58.777344 139.476562 58.777344 L 165.574219 58.777344 C 166.648438 58.777344 167.523438 59.652344 167.523438 60.726562 L 167.523438 86.824219 C 167.523438 87.898438 166.648438 88.777344 165.574219 88.777344"/><path fill="#545454" d="M 124.851562 88.777344 L 98.753906 88.777344 C 97.675781 88.777344 96.800781 87.898438 96.800781 86.824219 L 96.800781 60.726562 C 96.800781 59.652344 97.675781 58.777344 98.753906 58.777344 L 124.851562 58.777344 C 125.925781 58.777344 126.800781 59.652344 126.800781 60.726562 L 126.800781 86.824219 C 126.800781 87.898438 125.925781 88.777344 124.851562 88.777344"/><path fill="#545454" d="M 205.542969 88.777344 L 179.441406 88.777344 C 178.367188 88.777344 177.492188 87.898438 177.492188 86.824219 L 177.492188 60.726562 C 177.492188 59.652344 178.367188 58.777344 179.441406 58.777344 L 205.542969 58.777344 C 206.617188 58.777344 207.492188 59.652344 207.492188 60.726562 L 207.492188 86.824219 C 207.492188 87.898438 206.617188 88.777344 205.542969 88.777344"/><path fill="#545454" d="M 246.265625 88.777344 L 220.164062 88.777344 C 219.089844 88.777344 218.214844 87.898438 218.214844 86.824219 L 218.214844 60.726562 C 218.214844 59.652344 219.089844 58.777344 220.164062 58.777344 L 246.265625 58.777344 C 247.339844 58.777344 248.214844 59.652344 248.214844 60.726562 L 248.214844 86.824219 C 248.214844 87.898438 247.339844 88.777344 246.265625 88.777344"/><path fill="#545454" d="M 84.132812 128.957031 L 58.035156 128.957031 C 56.960938 128.957031 56.082031 128.082031 56.082031 127.007812 L 56.082031 100.910156 C 56.082031 99.832031 56.960938 98.957031 58.035156 98.957031 L 84.132812 98.957031 C 85.207031 98.957031 86.082031 99.832031 86.082031 100.910156 L 86.082031 127.007812 C 86.082031 128.082031 85.207031 128.957031 84.132812 128.957031"/><path fill="#545454" d="M 124.851562 128.957031 L 98.753906 128.957031 C 97.675781 128.957031 96.800781 128.082031 96.800781 127.007812 L 96.800781 100.910156 C 96.800781 99.832031 97.675781 98.957031 98.753906 98.957031 L 124.851562 98.957031 C 125.925781 98.957031 126.800781 99.832031 126.800781 100.910156 L 126.800781 127.007812 C 126.800781 128.082031 125.925781 128.957031 124.851562 128.957031"/><path fill="#545454" d="M 84.132812 209.4375 L 58.035156 209.4375 C 56.960938 209.4375 56.082031 208.5625 56.082031 207.488281 L 56.082031 181.390625 C 56.082031 180.316406 56.960938 179.4375 58.035156 179.4375 L 84.132812 179.4375 C 85.207031 179.4375 86.082031 180.316406 86.082031 181.390625 L 86.082031 207.488281 C 86.082031 208.5625 85.207031 209.4375 84.132812 209.4375"/><path fill="#545454" d="M 84.132812 247.507812 L 58.035156 247.507812 C 56.960938 247.507812 56.082031 246.632812 56.082031 245.554688 L 56.082031 219.457031 C 56.082031 218.382812 56.960938 217.507812 58.035156 217.507812 L 84.132812 217.507812 C 85.207031 217.507812 86.082031 218.382812 86.082031 219.457031 L 86.082031 245.554688 C 86.082031 246.632812 85.207031 247.507812 84.132812 247.507812"/><g clip-path="url(#e)"><g clip-path="url(#f)"><g clip-path="url(#g)"><path fill="#F6A942" d="M 79.519531 52.300781 L 79.980469 53.429688 C 80.359375 54.359375 80.570312 55.335938 80.65625 56.335938 C 80.726562 57.136719 80.683594 57.941406 80.539062 58.714844 C 80.375 59.449219 80.164062 60.179688 79.90625 60.90625 C 79.640625 61.613281 79.273438 62.292969 78.8125 62.921875 C 78.140625 63.882812 77.3125 64.683594 76.519531 65.511719 C 75.640625 66.355469 74.652344 67.101562 73.582031 67.699219 C 73.191406 67.925781 72.855469 68.292969 72.441406 68.414062 C 71.707031 68.644531 71.097656 69.191406 70.285156 69.175781 C 70.21875 69.183594 70.15625 69.253906 70.09375 69.277344 C 69.386719 69.75 68.597656 70.070312 67.769531 70.246094 C 67.386719 70.332031 67.003906 70.464844 66.621094 70.550781 C 65.695312 70.765625 64.789062 71.089844 63.820312 71.09375 C 63.359375 71.09375 62.914062 71.300781 62.433594 71.308594 C 61.730469 71.34375 61.023438 71.308594 60.347656 71.167969 C 59.96875 71.089844 59.582031 71.109375 59.199219 71.011719 C 58.738281 70.898438 58.226562 70.945312 57.828125 70.761719 C 57.382812 70.574219 56.898438 70.402344 56.429688 70.269531 C 56.167969 70.191406 55.90625 70.066406 55.644531 69.988281 C 54.265625 69.605469 52.964844 68.960938 51.824219 68.132812 C 50.835938 67.40625 49.953125 66.542969 49.421875 65.351562 C 48.847656 64.109375 48.550781 62.753906 48.550781 61.394531 C 48.570312 60.535156 48.769531 59.714844 49.144531 58.941406 C 49.652344 57.859375 50.375 56.917969 51.109375 55.996094 C 51.476562 55.546875 51.914062 55.140625 52.363281 54.773438 C 52.640625 54.542969 52.886719 54.304688 53.136719 54.066406 C 53.710938 53.4375 54.460938 53.066406 55.179688 52.679688 C 56.324219 52.03125 57.515625 51.453125 58.730469 50.914062 C 59.558594 50.578125 60.386719 50.285156 61.253906 50.09375 C 62.59375 49.757812 63.949219 49.460938 65.304688 49.164062 C 65.898438 49.035156 66.546875 49.09375 67.101562 48.871094 C 68.078125 48.496094 69.078125 48.574219 70.078125 48.421875 C 70.648438 48.347656 71.222656 48.347656 71.945312 48.304688 C 71.621094 48.023438 71.371094 47.800781 71.136719 47.621094 C 70.367188 47.035156 69.648438 46.402344 68.816406 45.890625 C 68.269531 45.558594 67.742188 45.175781 67.105469 44.972656 C 66.703125 44.835938 66.367188 44.511719 65.980469 44.300781 C 65.621094 44.101562 65.230469 43.9375 64.851562 43.792969 C 64.113281 43.515625 63.382812 43.1875 62.625 42.96875 C 61.179688 42.539062 59.738281 42.113281 58.300781 41.75 C 56.429688 41.289062 54.484375 41.042969 52.546875 41.046875 C 51.195312 41.066406 49.855469 41.175781 48.527344 41.371094 C 47.132812 41.566406 45.707031 41.753906 44.308594 42 C 42.667969 42.277344 41.046875 42.660156 39.484375 43.179688 C 39.324219 43.246094 39.140625 43.25 38.957031 43.300781 C 38.601562 43.398438 38.238281 43.523438 37.886719 43.621094 C 37.003906 43.890625 36.054688 43.996094 35.132812 43.9375 C 34.617188 43.867188 34.148438 43.621094 33.796875 43.210938 C 33.507812 42.890625 33.546875 42.480469 33.503906 42.085938 C 33.480469 41.976562 33.636719 41.847656 33.738281 41.757812 C 34.21875 41.355469 34.769531 41.0625 35.394531 40.898438 C 35.933594 40.75 36.476562 40.667969 37.03125 40.558594 C 37.414062 40.472656 37.796875 40.339844 38.175781 40.253906 C 39.617188 39.875 41.015625 39.464844 42.433594 39.144531 C 43.445312 38.917969 44.5 38.789062 45.519531 38.625 C 45.605469 38.613281 45.703125 38.621094 45.789062 38.609375 C 45.84375 38.746094 45.90625 38.839844 46.03125 39.089844 L 46.214844 38.574219 C 47.300781 38.410156 48.378906 38.226562 49.453125 38.089844 C 51.109375 37.851562 52.78125 37.820312 54.433594 37.976562 C 55.871094 38.105469 57.308594 38.351562 58.726562 38.605469 C 59.699219 38.785156 60.660156 38.992188 61.605469 39.277344 C 62.554688 39.5625 63.480469 39.851562 64.410156 40.210938 C 65.441406 40.597656 66.457031 40.992188 67.445312 41.492188 C 68.671875 42.074219 69.847656 42.75 70.984375 43.507812 C 71.96875 44.167969 72.835938 44.992188 73.808594 45.679688 C 74.488281 46.164062 74.972656 46.84375 75.707031 47.238281 C 76 47.785156 76.65625 47.980469 76.949219 48.53125 C 77.007812 48.621094 77.226562 48.648438 77.378906 48.679688 C 78.4375 48.847656 79.492188 48.996094 80.539062 49.191406 C 82.636719 49.582031 84.710938 50.144531 86.722656 50.894531 C 87.757812 51.28125 88.820312 51.632812 89.800781 52.109375 C 90.863281 52.625 91.878906 53.25 92.902344 53.84375 C 93.480469 54.1875 94.027344 54.566406 94.5625 54.96875 C 95.167969 55.4375 95.722656 55.949219 96.308594 56.425781 C 96.730469 56.785156 97.164062 57.117188 97.585938 57.472656 C 98.082031 57.894531 98.535156 58.332031 99.007812 58.761719 C 99.628906 59.320312 100.285156 59.859375 100.832031 60.464844 C 101.210938 60.886719 101.640625 61.265625 101.925781 61.796875 C 102.21875 62.230469 102.550781 62.648438 102.925781 63.003906 C 103.582031 63.65625 104.152344 64.371094 104.65625 65.160156 C 104.859375 65.492188 105.03125 65.859375 105.347656 66.121094 C 105.472656 66.257812 105.574219 66.398438 105.640625 66.554688 C 106.238281 67.582031 106.859375 68.597656 107.449219 69.648438 C 107.742188 70.195312 107.996094 70.761719 108.199219 71.371094 C 108.527344 72.414062 108.847656 73.480469 109.121094 74.546875 C 109.320312 75.320312 109.304688 76.132812 109.035156 76.886719 C 108.914062 77.214844 108.75 77.324219 108.460938 77.121094 C 108.132812 76.886719 107.847656 76.632812 107.5625 76.332031 C 107.105469 75.828125 106.820312 75.183594 106.441406 74.597656 C 105.964844 73.824219 105.628906 72.992188 105.050781 72.257812 C 104.722656 71.839844 104.542969 71.289062 104.28125 70.820312 C 103.929688 70.179688 103.558594 69.546875 103.171875 68.941406 C 102.816406 68.351562 102.410156 67.800781 102.011719 67.222656 C 101.832031 66.953125 101.625 66.667969 101.394531 66.4375 C 101.164062 66.210938 100.953125 65.925781 100.8125 65.636719 C 100.550781 65.214844 100.246094 64.808594 99.890625 64.445312 C 99.582031 64.085938 99.257812 63.734375 98.929688 63.382812 C 98.46875 62.878906 97.984375 62.363281 97.503906 61.867188 C 97.308594 61.667969 97.101562 61.5 96.90625 61.300781 C 96.238281 60.628906 95.507812 60.023438 94.769531 59.449219 C 94.355469 59.113281 93.992188 58.730469 93.535156 58.40625 C 93.457031 58.324219 93.390625 58.214844 93.328125 58.121094 C 93.285156 58.070312 93.257812 57.945312 93.207031 57.941406 C 92.65625 57.886719 92.386719 57.398438 91.964844 57.15625 C 91.476562 56.914062 91.023438 56.59375 90.621094 56.226562 C 90.308594 55.914062 89.898438 55.875 89.574219 55.636719 C 89.246094 55.402344 88.832031 55.292969 88.472656 55.140625 C 87.84375 54.84375 87.234375 54.539062 86.59375 54.265625 C 85.953125 53.996094 85.308594 53.777344 84.644531 53.5625 C 83.984375 53.347656 83.328125 53.152344 82.652344 52.964844 C 81.777344 52.746094 80.882812 52.53125 79.996094 52.339844 C 79.894531 52.3125 79.703125 52.296875 79.519531 52.300781 Z M 58.601562 54.402344 C 57.808594 54.839844 57.078125 55.25 56.355469 55.683594 C 54.808594 56.589844 53.558594 57.882812 52.707031 59.472656 C 52.4375 60 52.054688 60.476562 52.023438 61.136719 C 51.941406 62.414062 52.300781 63.695312 53.027344 64.738281 C 53.609375 65.609375 54.523438 66.042969 55.429688 66.503906 C 56.035156 66.8125 56.699219 67.023438 57.339844 67.296875 C 58.5 67.769531 59.714844 67.96875 60.945312 68.15625 C 61.429688 68.214844 61.898438 68.230469 62.394531 68.214844 C 62.808594 68.207031 63.21875 68.132812 63.59375 67.980469 C 63.820312 67.910156 64.042969 67.84375 64.285156 67.8125 C 64.949219 67.683594 65.648438 67.648438 66.285156 67.394531 C 67.292969 66.980469 68.386719 66.835938 69.316406 66.230469 C 69.375 66.203125 69.433594 66.179688 69.484375 66.183594 C 69.75 66.050781 70.046875 65.929688 70.316406 65.796875 C 70.585938 65.664062 70.882812 65.429688 71.199219 65.300781 C 71.957031 64.949219 72.652344 64.503906 73.265625 63.976562 C 74.226562 63.21875 75.089844 62.335938 75.8125 61.328125 C 75.929688 61.164062 76.027344 61.007812 76.117188 60.835938 C 76.65625 59.832031 77.15625 58.796875 77.3125 57.648438 C 77.363281 57.261719 77.40625 56.851562 77.40625 56.460938 C 77.394531 56.257812 77.332031 56.050781 77.253906 55.855469 C 77.140625 55.300781 77.019531 54.773438 76.84375 54.222656 C 76.714844 53.789062 76.496094 53.371094 76.238281 53.015625 C 76.042969 52.769531 75.753906 52.566406 75.6875 52.292969 C 75.523438 51.714844 75.105469 51.65625 74.644531 51.65625 C 73.765625 51.648438 72.855469 51.625 71.976562 51.613281 C 71.410156 51.589844 70.84375 51.613281 70.265625 51.664062 C 68.910156 51.847656 67.578125 52.089844 66.214844 52.25 C 64.675781 52.4375 63.214844 52.871094 61.742188 53.332031 C 60.636719 53.621094 59.605469 54.039062 58.601562 54.402344 Z M 58.601562 54.402344"/></g></g></g><g clip-path="url(#h)"><g clip-path="url(#i)"><g clip-path="url(#j)"><path fill="#E04E2D" d="M 305.683594 65.59375 C 307.222656 65.949219 308.679688 66.261719 310.117188 66.644531 C 310.808594 66.820312 311.074219 67.625 310.746094 68.285156 C 310.3125 69.128906 309.628906 69.796875 308.785156 70.195312 C 306.410156 71.417969 304.078125 72.695312 301.667969 73.828125 C 300.230469 74.503906 298.699219 74.949219 297.195312 75.492188 C 295.878906 75.96875 294.535156 76.414062 293.203125 76.863281 C 291.769531 77.351562 290.339844 77.824219 288.90625 78.3125 C 286.1875 79.234375 283.492188 80.214844 280.761719 81.035156 C 279.117188 81.53125 277.40625 81.78125 275.722656 82.148438 C 275.152344 82.265625 274.59375 82.410156 274.023438 82.515625 C 273.027344 82.691406 272.042969 82.859375 271.042969 83.007812 C 270.617188 83.070312 270.191406 83.046875 269.777344 83.125 C 268.324219 83.363281 266.953125 83.011719 265.601562 82.574219 C 264.828125 82.324219 264.019531 82.171875 263.277344 81.851562 C 262.167969 81.359375 262.007812 80.253906 262.78125 79.328125 C 263.46875 78.488281 264.429688 78.132812 265.375 77.808594 C 267.882812 76.925781 270.402344 76.054688 272.933594 75.289062 C 275.265625 74.589844 277.648438 74.039062 279.992188 73.398438 C 281.378906 73.007812 282.726562 72.546875 284.097656 72.144531 C 285.199219 71.824219 286.3125 71.574219 287.402344 71.253906 C 288.703125 70.863281 289.976562 70.441406 291.265625 69.996094 C 293.113281 69.371094 294.960938 68.691406 296.804688 68.066406 C 298.96875 67.347656 301.144531 66.648438 303.332031 65.988281 C 304.132812 65.773438 304.957031 65.722656 305.683594 65.59375 Z M 305.683594 65.59375"/></g></g></g><g clip-path="url(#k)"><g clip-path="url(#l)"><g clip-path="url(#m)"><path fill="#0D5F5A" d="M 305.953125 296.144531 L 307.214844 296.636719 C 308.25 297.039062 309.199219 297.609375 310.074219 298.308594 C 310.773438 298.863281 311.386719 299.507812 311.898438 300.21875 C 312.367188 300.914062 312.796875 301.640625 313.183594 302.40625 C 313.550781 303.164062 313.820312 303.984375 313.972656 304.835938 C 314.238281 306.113281 314.246094 307.394531 314.308594 308.671875 C 314.316406 310.03125 314.164062 311.402344 313.828125 312.730469 C 313.710938 313.222656 313.753906 313.773438 313.535156 314.203125 C 313.160156 314.976562 313.132812 315.886719 312.5 316.535156 C 312.453125 316.59375 312.464844 316.699219 312.4375 316.765625 C 312.277344 317.703125 311.933594 318.589844 311.441406 319.394531 C 311.21875 319.769531 311.03125 320.183594 310.8125 320.558594 C 310.277344 321.476562 309.84375 322.457031 309.105469 323.246094 C 308.757812 323.621094 308.582031 324.140625 308.222656 324.539062 C 307.710938 325.132812 307.144531 325.675781 306.511719 326.121094 C 306.164062 326.371094 305.882812 326.695312 305.511719 326.933594 C 305.066406 327.222656 304.714844 327.675781 304.261719 327.855469 C 303.769531 328.074219 303.261719 328.335938 302.796875 328.617188 C 302.535156 328.769531 302.234375 328.882812 301.972656 329.039062 C 300.609375 329.863281 299.09375 330.425781 297.554688 330.722656 C 296.210938 330.96875 294.84375 331.023438 293.476562 330.542969 C 292.039062 330.0625 290.71875 329.265625 289.621094 328.226562 C 288.945312 327.554688 288.433594 326.769531 288.097656 325.871094 C 287.613281 324.632812 287.40625 323.328125 287.226562 322.027344 C 287.144531 321.382812 287.148438 320.71875 287.195312 320.074219 C 287.222656 319.675781 287.21875 319.292969 287.21875 318.90625 C 287.152344 317.960938 287.421875 317.070312 287.664062 316.191406 C 288.011719 314.765625 288.457031 313.355469 288.949219 311.960938 C 289.3125 311.027344 289.710938 310.132812 290.21875 309.285156 C 290.96875 307.9375 291.765625 306.613281 292.5625 305.285156 C 292.914062 304.707031 293.457031 304.226562 293.699219 303.605469 C 294.140625 302.523438 294.96875 301.773438 295.609375 300.84375 C 295.988281 300.328125 296.425781 299.859375 296.945312 299.242188 C 296.46875 299.285156 296.097656 299.320312 295.773438 299.375 C 294.714844 299.550781 293.65625 299.652344 292.605469 299.933594 C 291.921875 300.128906 291.207031 300.257812 290.558594 300.621094 C 290.140625 300.84375 289.621094 300.871094 289.15625 301.023438 C 288.722656 301.160156 288.292969 301.351562 287.882812 301.550781 C 287.097656 301.933594 286.277344 302.28125 285.519531 302.726562 C 284.070312 303.570312 282.625 304.414062 281.234375 305.308594 C 279.433594 306.472656 277.75 307.863281 276.273438 309.4375 C 275.257812 310.550781 274.320312 311.722656 273.460938 312.949219 C 272.554688 314.230469 271.617188 315.53125 270.746094 316.855469 C 269.714844 318.394531 268.785156 320.003906 268.011719 321.671875 C 267.941406 321.847656 267.808594 322 267.707031 322.191406 C 267.515625 322.550781 267.339844 322.945312 267.148438 323.304688 C 266.6875 324.226562 266.050781 325.078125 265.296875 325.78125 C 264.847656 326.144531 264.292969 326.335938 263.691406 326.308594 C 263.210938 326.300781 262.914062 325.953125 262.558594 325.6875 C 262.457031 325.625 262.46875 325.398438 262.476562 325.246094 C 262.519531 324.546875 262.703125 323.878906 263.050781 323.246094 C 263.339844 322.695312 263.691406 322.191406 264.023438 321.65625 C 264.246094 321.28125 264.433594 320.867188 264.652344 320.492188 C 265.449219 319.039062 266.191406 317.589844 267.011719 316.195312 C 267.601562 315.195312 268.304688 314.242188 268.953125 313.292969 C 269.007812 313.210938 269.089844 313.140625 269.144531 313.058594 C 269.300781 313.121094 269.417969 313.140625 269.714844 313.230469 L 269.441406 312.691406 C 270.136719 311.683594 270.8125 310.664062 271.523438 309.6875 C 272.597656 308.164062 273.847656 306.78125 275.238281 305.558594 C 276.441406 304.492188 277.738281 303.511719 279.023438 302.554688 C 279.914062 301.90625 280.816406 301.285156 281.765625 300.734375 C 282.71875 300.183594 283.660156 299.652344 284.660156 299.171875 C 285.761719 298.628906 286.855469 298.109375 288.011719 297.6875 C 289.421875 297.136719 290.863281 296.699219 292.34375 296.355469 C 293.628906 296.058594 294.953125 295.988281 296.25 295.722656 C 297.160156 295.542969 298.078125 295.667969 298.957031 295.371094 C 299.625 295.550781 300.28125 295.167969 300.949219 295.351562 C 301.066406 295.371094 301.253906 295.214844 301.394531 295.117188 C 302.339844 294.382812 303.265625 293.644531 304.222656 292.941406 C 306.140625 291.539062 308.179688 290.285156 310.320312 289.226562 C 311.421875 288.683594 312.519531 288.085938 313.652344 287.65625 C 314.878906 287.1875 316.15625 286.839844 317.421875 286.464844 C 318.136719 286.253906 318.859375 286.101562 319.59375 285.976562 C 320.433594 285.84375 321.269531 285.785156 322.101562 285.675781 C 322.714844 285.605469 323.3125 285.503906 323.925781 285.4375 C 324.640625 285.355469 325.339844 285.320312 326.050781 285.265625 C 326.96875 285.1875 327.90625 285.066406 328.816406 285.085938 C 329.445312 285.101562 330.078125 285.039062 330.722656 285.214844 C 331.296875 285.308594 331.886719 285.359375 332.460938 285.328125 C 333.492188 285.292969 334.5 285.378906 335.519531 285.570312 C 335.941406 285.65625 336.371094 285.796875 336.824219 285.746094 C 337.027344 285.746094 337.222656 285.769531 337.398438 285.839844 C 338.683594 286.132812 339.976562 286.40625 341.273438 286.730469 C 341.941406 286.914062 342.589844 287.140625 343.234375 287.441406 C 344.328125 287.96875 345.433594 288.527344 346.5 289.121094 C 347.273438 289.546875 347.917969 290.183594 348.320312 290.976562 C 348.492188 291.324219 348.457031 291.542969 348.070312 291.621094 C 347.628906 291.707031 347.207031 291.746094 346.75 291.75 C 345.992188 291.734375 345.253906 291.472656 344.496094 291.332031 C 343.507812 291.128906 342.578125 290.765625 341.546875 290.671875 C 340.957031 290.621094 340.378906 290.347656 339.800781 290.199219 C 339.011719 289.996094 338.21875 289.8125 337.4375 289.664062 C 336.6875 289.5 335.933594 289.410156 335.167969 289.292969 C 334.808594 289.230469 334.421875 289.183594 334.058594 289.195312 C 333.699219 289.207031 333.3125 289.160156 332.96875 289.054688 C 332.429688 288.945312 331.867188 288.878906 331.304688 288.890625 C 330.78125 288.867188 330.246094 288.863281 329.714844 288.863281 C 328.957031 288.847656 328.167969 288.847656 327.402344 288.859375 C 327.09375 288.867188 326.796875 288.90625 326.488281 288.914062 C 325.4375 288.9375 324.394531 289.070312 323.363281 289.230469 C 322.773438 289.308594 322.1875 289.3125 321.582031 289.433594 C 321.453125 289.4375 321.3125 289.40625 321.195312 289.386719 C 321.117188 289.382812 320.996094 289.308594 320.957031 289.34375 C 320.492188 289.753906 319.890625 289.597656 319.375 289.753906 C 318.808594 289.96875 318.199219 290.089844 317.597656 290.136719 C 317.109375 290.152344 316.761719 290.449219 316.324219 290.535156 C 315.882812 290.621094 315.480469 290.871094 315.078125 291.050781 C 314.359375 291.332031 313.648438 291.59375 312.941406 291.90625 C 312.234375 292.21875 311.5625 292.574219 310.882812 292.949219 C 310.203125 293.324219 309.546875 293.707031 308.878906 294.113281 C 308.035156 294.652344 307.179688 295.214844 306.347656 295.789062 C 306.246094 295.851562 306.089844 295.992188 305.953125 296.144531 Z M 291.664062 314.726562 C 291.410156 315.703125 291.183594 316.613281 290.980469 317.53125 C 290.53125 319.476562 290.617188 321.480469 291.25 323.386719 C 291.464844 324.007812 291.558594 324.683594 292.066406 325.214844 C 293.035156 326.253906 294.34375 326.941406 295.738281 327.152344 C 296.882812 327.339844 297.933594 326.929688 298.996094 326.550781 C 299.707031 326.292969 300.386719 325.917969 301.09375 325.601562 C 302.363281 325.023438 303.449219 324.191406 304.542969 323.335938 C 304.957031 322.988281 305.332031 322.621094 305.695312 322.199219 C 306.007812 321.859375 306.257812 321.472656 306.421875 321.050781 C 306.539062 320.816406 306.65625 320.578125 306.820312 320.359375 C 307.21875 319.722656 307.730469 319.128906 308.003906 318.417969 C 308.445312 317.285156 309.164062 316.289062 309.382812 315.070312 C 309.410156 315 309.4375 314.933594 309.476562 314.898438 C 309.574219 314.578125 309.703125 314.246094 309.800781 313.925781 C 309.902344 313.609375 309.9375 313.1875 310.074219 312.832031 C 310.367188 311.949219 310.539062 311.042969 310.585938 310.140625 C 310.707031 308.78125 310.65625 307.40625 310.394531 306.050781 C 310.351562 305.832031 310.304688 305.632812 310.230469 305.425781 C 309.832031 304.222656 309.382812 303.027344 308.578125 302.023438 C 308.300781 301.6875 308.003906 301.339844 307.6875 301.039062 C 307.515625 300.894531 307.304688 300.785156 307.082031 300.699219 C 306.550781 300.367188 306.035156 300.0625 305.453125 299.785156 C 305.007812 299.5625 304.503906 299.417969 304.019531 299.355469 C 303.675781 299.324219 303.289062 299.40625 303.019531 299.25 C 302.425781 298.941406 302.058594 299.234375 301.707031 299.609375 C 301.027344 300.316406 300.316406 301.035156 299.632812 301.742188 C 299.183594 302.183594 298.769531 302.660156 298.367188 303.167969 C 297.480469 304.410156 296.65625 305.675781 295.746094 306.90625 C 294.722656 308.296875 293.953125 309.816406 293.199219 311.363281 C 292.589844 312.480469 292.140625 313.636719 291.664062 314.726562 Z M 291.664062 314.726562"/></g></g></g></svg>