<svg xmlns="http://www.w3.org/2000/svg" xmlns:xlink="http://www.w3.org/1999/xlink" width="375" viewBox="0 0 375 375" height="375" version="1.0"><defs><clipPath id="b"><path d="M 88 115 L 136 115 L 136 142 L 88 142 Z M 88 115"/></clipPath><clipPath id="c"><path d="M 87.929688 116.960938 L 122.515625 104.542969 L 135.699219 141.25 L 101.109375 153.667969 Z M 87.929688 116.960938"/></clipPath><clipPath id="d"><path d="M 87.929688 116.960938 L 122.515625 104.542969 L 135.699219 141.25 L 101.109375 153.667969 Z M 87.929688 116.960938"/></clipPath><clipPath id="e"><path d="M 242 131 L 272 131 L 272 143 L 242 143 Z M 242 131"/></clipPath><clipPath id="f"><path d="M 242.492188 142.304688 L 242.761719 131.058594 L 272.003906 131.757812 L 271.734375 143.003906 Z M 242.492188 142.304688"/></clipPath><clipPath id="g"><path d="M 242.492188 142.304688 L 242.761719 131.058594 L 272.003906 131.757812 L 271.734375 143.003906 Z M 242.492188 142.304688"/></clipPath><clipPath id="h"><path d="M 205 223 L 258 223 L 258 251 L 205 251 Z M 205 223"/></clipPath><clipPath id="i"><path d="M 204.933594 247.800781 L 219.058594 211.449219 L 257.507812 226.390625 L 243.382812 262.742188 Z M 204.933594 247.800781"/></clipPath><clipPath id="j"><path d="M 204.933594 247.800781 L 219.058594 211.449219 L 257.507812 226.390625 L 243.382812 262.742188 Z M 204.933594 247.800781"/></clipPath><clipPath id="m"><path d="M 0.238281 0.761719 L 62 0.761719 L 62 62.441406 L 0.238281 62.441406 Z M 0.238281 0.761719"/></clipPath><clipPath id="l"><path d="M0 0H63V63H0z"/></clipPath><filter x="0%" y="0%" width="100%" xlink:type="simple" xlink:actuate="onLoad" height="100%" id="a" xlink:show="other"><feColorMatrix values="0 0 0 0 1 0 0 0 0 1 0 0 0 0 1 0 0 0 1 0" color-interpolation-filters="sRGB"/></filter><mask id="k"><g filter="url(#a)"><path fill-opacity=".149" d="M-37.5 -37.5H412.5V412.5H-37.5z"/></g></mask></defs><g clip-path="url(#b)"><g clip-path="url(#c)"><g clip-path="url(#d)"><path fill="#F6A942" d="M 116.882812 124.953125 L 117.144531 125.679688 C 117.359375 126.28125 117.46875 126.902344 117.496094 127.539062 C 117.523438 128.046875 117.476562 128.554688 117.367188 129.039062 C 117.246094 129.5 117.097656 129.957031 116.917969 130.410156 C 116.734375 130.851562 116.484375 131.269531 116.179688 131.652344 C 115.734375 132.246094 115.195312 132.726562 114.675781 133.230469 C 114.105469 133.738281 113.464844 134.183594 112.777344 134.53125 C 112.527344 134.664062 112.304688 134.886719 112.042969 134.953125 C 111.574219 135.078125 111.179688 135.40625 110.667969 135.375 C 110.628906 135.375 110.585938 135.417969 110.546875 135.429688 C 110.09375 135.710938 109.585938 135.890625 109.0625 135.980469 C 108.820312 136.023438 108.578125 136.097656 108.335938 136.140625 C 107.746094 136.25 107.167969 136.429688 106.5625 136.402344 C 106.273438 136.390625 105.984375 136.507812 105.683594 136.5 C 105.242188 136.503906 104.800781 136.460938 104.375 136.351562 C 104.140625 136.292969 103.898438 136.292969 103.660156 136.222656 C 103.371094 136.136719 103.050781 136.152344 102.804688 136.023438 C 102.527344 135.894531 102.226562 135.769531 101.9375 135.675781 C 101.773438 135.617188 101.613281 135.53125 101.449219 135.476562 C 100.59375 135.191406 99.792969 134.746094 99.09375 134.191406 C 98.488281 133.703125 97.957031 133.132812 97.652344 132.363281 C 97.320312 131.5625 97.167969 130.695312 97.199219 129.835938 C 97.234375 129.289062 97.378906 128.777344 97.632812 128.296875 C 97.976562 127.628906 98.453125 127.050781 98.9375 126.492188 C 99.179688 126.214844 99.464844 125.96875 99.757812 125.75 C 99.933594 125.613281 100.097656 125.46875 100.257812 125.324219 C 100.636719 124.945312 101.113281 124.730469 101.578125 124.507812 C 102.3125 124.128906 103.074219 123.796875 103.851562 123.488281 C 104.378906 123.296875 104.90625 123.136719 105.457031 123.042969 C 106.308594 122.867188 107.164062 122.714844 108.023438 122.566406 C 108.402344 122.503906 108.804688 122.558594 109.160156 122.429688 C 109.785156 122.222656 110.410156 122.300781 111.042969 122.230469 C 111.402344 122.203125 111.765625 122.214844 112.21875 122.210938 C 112.023438 122.023438 111.871094 121.875 111.726562 121.753906 C 111.257812 121.363281 110.820312 120.941406 110.3125 120.59375 C 109.972656 120.367188 109.652344 120.109375 109.257812 119.964844 C 109.007812 119.867188 108.804688 119.652344 108.566406 119.507812 C 108.347656 119.371094 108.105469 119.253906 107.867188 119.152344 C 107.414062 118.957031 106.960938 118.730469 106.488281 118.570312 C 105.59375 118.257812 104.699219 117.945312 103.800781 117.679688 C 102.636719 117.332031 101.421875 117.121094 100.203125 117.070312 C 99.355469 117.042969 98.507812 117.074219 97.667969 117.160156 C 96.789062 117.246094 95.890625 117.324219 95.003906 117.441406 C 93.964844 117.570312 92.9375 117.765625 91.941406 118.050781 C 91.839844 118.085938 91.726562 118.085938 91.609375 118.113281 C 91.382812 118.164062 91.152344 118.234375 90.929688 118.285156 C 90.367188 118.429688 89.769531 118.472656 89.191406 118.40625 C 88.871094 118.347656 88.582031 118.179688 88.371094 117.910156 C 88.195312 117.699219 88.230469 117.441406 88.210938 117.1875 C 88.199219 117.121094 88.300781 117.042969 88.367188 116.988281 C 88.679688 116.746094 89.03125 116.578125 89.429688 116.492188 C 89.773438 116.414062 90.113281 116.375 90.464844 116.320312 C 90.707031 116.277344 90.953125 116.203125 91.191406 116.160156 C 92.105469 115.964844 92.996094 115.742188 93.894531 115.582031 C 94.535156 115.464844 95.203125 115.414062 95.847656 115.339844 C 95.902344 115.335938 95.960938 115.339844 96.015625 115.335938 C 96.046875 115.425781 96.082031 115.484375 96.15625 115.644531 L 96.285156 115.328125 C 96.96875 115.253906 97.652344 115.167969 98.332031 115.109375 C 99.378906 115.007812 100.429688 115.03125 101.464844 115.179688 C 102.363281 115.300781 103.261719 115.496094 104.148438 115.699219 C 104.753906 115.839844 105.351562 116 105.941406 116.207031 C 106.527344 116.410156 107.101562 116.621094 107.679688 116.875 C 108.320312 117.148438 108.945312 117.429688 109.554688 117.769531 C 110.3125 118.175781 111.035156 118.636719 111.730469 119.148438 C 112.335938 119.59375 112.859375 120.140625 113.453125 120.601562 C 113.867188 120.929688 114.15625 121.371094 114.609375 121.640625 C 114.78125 121.996094 115.1875 122.136719 115.359375 122.492188 C 115.394531 122.554688 115.53125 122.578125 115.625 122.601562 C 116.285156 122.738281 116.945312 122.859375 117.597656 123.011719 C 118.90625 123.320312 120.195312 123.734375 121.441406 124.265625 C 122.082031 124.539062 122.742188 124.792969 123.347656 125.121094 C 124 125.476562 124.625 125.902344 125.253906 126.308594 C 125.609375 126.539062 125.945312 126.792969 126.269531 127.066406 C 126.640625 127.378906 126.976562 127.71875 127.332031 128.039062 C 127.589844 128.277344 127.851562 128.5 128.109375 128.738281 C 128.410156 129.015625 128.6875 129.308594 128.972656 129.59375 C 129.347656 129.960938 129.75 130.320312 130.078125 130.722656 C 130.304688 131 130.566406 131.25 130.734375 131.59375 C 130.90625 131.878906 131.105469 132.152344 131.332031 132.386719 C 131.730469 132.820312 132.070312 133.289062 132.367188 133.800781 C 132.488281 134.015625 132.585938 134.253906 132.777344 134.429688 C 132.851562 134.515625 132.914062 134.609375 132.949219 134.710938 C 133.304688 135.375 133.667969 136.039062 134.015625 136.71875 C 134.183594 137.074219 134.328125 137.441406 134.441406 137.832031 C 134.625 138.5 134.800781 139.1875 134.945312 139.867188 C 135.050781 140.363281 135.023438 140.875 134.835938 141.347656 C 134.75 141.550781 134.644531 141.617188 134.46875 141.476562 C 134.269531 141.320312 134.09375 141.152344 133.921875 140.953125 C 133.648438 140.621094 133.484375 140.207031 133.261719 139.824219 C 132.980469 139.320312 132.789062 138.785156 132.445312 138.304688 C 132.246094 138.03125 132.148438 137.675781 131.996094 137.371094 C 131.789062 136.957031 131.570312 136.546875 131.34375 136.152344 C 131.132812 135.765625 130.890625 135.410156 130.65625 135.03125 C 130.550781 134.855469 130.425781 134.667969 130.285156 134.519531 C 130.144531 134.367188 130.023438 134.179688 129.941406 133.992188 C 129.785156 133.71875 129.605469 133.453125 129.390625 133.214844 C 129.203125 132.976562 129.007812 132.746094 128.808594 132.515625 C 128.535156 132.183594 128.242188 131.839844 127.953125 131.511719 C 127.832031 131.382812 127.707031 131.269531 127.589844 131.140625 C 127.1875 130.695312 126.742188 130.292969 126.292969 129.90625 C 126.039062 129.683594 125.820312 129.429688 125.542969 129.210938 C 125.496094 129.15625 125.453125 129.085938 125.417969 129.027344 C 125.390625 128.992188 125.378906 128.910156 125.347656 128.910156 C 125.003906 128.859375 124.84375 128.542969 124.585938 128.375 C 124.285156 128.210938 124.007812 127.992188 123.761719 127.75 C 123.574219 127.542969 123.320312 127.507812 123.121094 127.347656 C 122.917969 127.191406 122.664062 127.109375 122.4375 127.003906 C 122.050781 126.796875 121.675781 126.585938 121.28125 126.398438 C 120.882812 126.207031 120.484375 126.050781 120.074219 125.894531 C 119.660156 125.742188 119.253906 125.597656 118.832031 125.460938 C 118.289062 125.296875 117.734375 125.136719 117.179688 124.992188 C 117.117188 124.972656 116.996094 124.957031 116.882812 124.953125 Z M 103.683594 125.691406 C 103.175781 125.945312 102.707031 126.1875 102.242188 126.441406 C 101.25 126.96875 100.433594 127.753906 99.859375 128.734375 C 99.675781 129.0625 99.421875 129.351562 99.386719 129.769531 C 99.304688 130.574219 99.5 131.398438 99.929688 132.078125 C 100.277344 132.644531 100.839844 132.945312 101.398438 133.261719 C 101.773438 133.472656 102.183594 133.628906 102.582031 133.816406 C 103.300781 134.148438 104.054688 134.308594 104.824219 134.464844 C 105.128906 134.515625 105.421875 134.539062 105.734375 134.539062 C 105.996094 134.546875 106.253906 134.511719 106.492188 134.425781 C 106.636719 134.390625 106.78125 134.351562 106.933594 134.339844 C 107.351562 134.277344 107.792969 134.277344 108.199219 134.132812 C 108.84375 133.898438 109.535156 133.839844 110.132812 133.480469 C 110.171875 133.464844 110.207031 133.453125 110.238281 133.457031 C 110.410156 133.378906 110.601562 133.3125 110.773438 133.234375 C 110.945312 133.160156 111.136719 133.019531 111.339844 132.945312 C 111.820312 132.742188 112.269531 132.480469 112.667969 132.164062 C 113.292969 131.710938 113.855469 131.179688 114.332031 130.5625 C 114.410156 130.460938 114.476562 130.367188 114.539062 130.257812 C 114.898438 129.636719 115.238281 128.996094 115.367188 128.277344 C 115.40625 128.03125 115.441406 127.773438 115.453125 127.527344 C 115.449219 127.398438 115.417969 127.265625 115.371094 127.136719 C 115.316406 126.785156 115.25 126.445312 115.152344 126.09375 C 115.082031 125.816406 114.957031 125.546875 114.800781 125.3125 C 114.6875 125.152344 114.507812 125.015625 114.476562 124.839844 C 114.382812 124.46875 114.125 124.417969 113.835938 124.40625 C 113.28125 124.375 112.710938 124.335938 112.15625 124.304688 C 111.804688 124.273438 111.445312 124.273438 111.082031 124.289062 C 110.226562 124.367188 109.382812 124.480469 108.523438 124.546875 C 107.550781 124.621094 106.621094 124.855469 105.683594 125.105469 C 104.984375 125.253906 104.324219 125.492188 103.683594 125.691406 Z M 103.683594 125.691406"/></g></g></g><g clip-path="url(#e)"><g clip-path="url(#f)"><g clip-path="url(#g)"><path fill="#E04E2D" d="M 268.742188 131.710938 C 269.664062 131.921875 270.539062 132.109375 271.402344 132.339844 C 271.816406 132.445312 271.976562 132.925781 271.777344 133.324219 C 271.519531 133.828125 271.109375 134.230469 270.601562 134.46875 C 269.175781 135.203125 267.777344 135.96875 266.332031 136.648438 C 265.46875 137.054688 264.550781 137.320312 263.648438 137.644531 C 262.859375 137.933594 262.050781 138.199219 261.25 138.46875 C 260.390625 138.761719 259.535156 139.042969 258.675781 139.335938 C 257.042969 139.890625 255.425781 140.476562 253.789062 140.96875 C 252.800781 141.269531 251.773438 141.417969 250.765625 141.636719 C 250.421875 141.707031 250.085938 141.796875 249.746094 141.855469 C 249.144531 141.964844 248.554688 142.0625 247.957031 142.152344 C 247.699219 142.191406 247.445312 142.175781 247.195312 142.222656 C 246.324219 142.367188 245.503906 142.15625 244.691406 141.894531 C 244.226562 141.742188 243.742188 141.652344 243.296875 141.460938 C 242.628906 141.164062 242.535156 140.5 243 139.945312 C 243.414062 139.441406 243.988281 139.230469 244.554688 139.035156 C 246.058594 138.503906 247.570312 137.984375 249.089844 137.523438 C 250.488281 137.105469 251.917969 136.773438 253.328125 136.390625 C 254.160156 136.15625 254.964844 135.878906 255.789062 135.636719 C 256.449219 135.445312 257.117188 135.296875 257.769531 135.101562 C 258.550781 134.867188 259.316406 134.617188 260.089844 134.347656 C 261.195312 133.976562 262.304688 133.566406 263.414062 133.191406 C 264.710938 132.761719 266.015625 132.339844 267.328125 131.945312 C 267.808594 131.816406 268.304688 131.785156 268.742188 131.710938 Z M 268.742188 131.710938"/></g></g></g><g clip-path="url(#h)"><g clip-path="url(#i)"><g clip-path="url(#j)"><path fill="#0D5F5A" d="M 231.429688 230.148438 L 232.191406 230.445312 C 232.820312 230.6875 233.394531 231.03125 233.921875 231.453125 C 234.34375 231.785156 234.71875 232.171875 235.027344 232.601562 C 235.3125 233.015625 235.570312 233.453125 235.808594 233.914062 C 236.03125 234.367188 236.195312 234.855469 236.289062 235.367188 C 236.453125 236.132812 236.460938 236.902344 236.503906 237.664062 C 236.507812 238.476562 236.421875 239.300781 236.21875 240.09375 C 236.152344 240.386719 236.175781 240.71875 236.046875 240.972656 C 235.820312 241.433594 235.808594 241.980469 235.429688 242.367188 C 235.398438 242.402344 235.40625 242.464844 235.390625 242.503906 C 235.296875 243.066406 235.089844 243.597656 234.792969 244.078125 C 234.660156 244.300781 234.550781 244.546875 234.417969 244.769531 C 234.097656 245.320312 233.839844 245.90625 233.394531 246.375 C 233.183594 246.601562 233.078125 246.910156 232.863281 247.148438 C 232.558594 247.503906 232.214844 247.828125 231.835938 248.09375 C 231.625 248.242188 231.457031 248.433594 231.234375 248.578125 C 230.964844 248.75 230.753906 249.015625 230.480469 249.125 C 230.183594 249.253906 229.878906 249.410156 229.597656 249.578125 C 229.441406 249.667969 229.261719 249.734375 229.101562 249.828125 C 228.28125 250.316406 227.367188 250.652344 226.441406 250.824219 C 225.632812 250.96875 224.804688 251 223.980469 250.710938 C 223.109375 250.417969 222.3125 249.941406 221.648438 249.316406 C 221.238281 248.910156 220.929688 248.4375 220.722656 247.902344 C 220.425781 247.160156 220.300781 246.375 220.1875 245.597656 C 220.136719 245.214844 220.136719 244.816406 220.164062 244.429688 C 220.179688 244.191406 220.179688 243.960938 220.175781 243.730469 C 220.132812 243.164062 220.296875 242.628906 220.4375 242.105469 C 220.644531 241.253906 220.914062 240.410156 221.207031 239.578125 C 221.421875 239.019531 221.660156 238.484375 221.964844 237.976562 C 222.414062 237.175781 222.894531 236.382812 223.371094 235.589844 C 223.582031 235.242188 223.90625 234.957031 224.050781 234.585938 C 224.316406 233.941406 224.816406 233.492188 225.199219 232.9375 C 225.425781 232.628906 225.6875 232.347656 226 231.980469 C 225.714844 232.007812 225.492188 232.027344 225.292969 232.058594 C 224.65625 232.160156 224.019531 232.21875 223.386719 232.386719 C 222.972656 232.5 222.542969 232.578125 222.152344 232.792969 C 221.898438 232.925781 221.585938 232.941406 221.304688 233.03125 C 221.042969 233.109375 220.785156 233.222656 220.539062 233.34375 C 220.066406 233.570312 219.570312 233.777344 219.113281 234.042969 C 218.242188 234.542969 217.371094 235.046875 216.535156 235.578125 C 215.449219 236.269531 214.4375 237.101562 213.550781 238.039062 C 212.9375 238.703125 212.375 239.402344 211.859375 240.132812 C 211.316406 240.898438 210.753906 241.675781 210.230469 242.464844 C 209.613281 243.386719 209.054688 244.34375 208.589844 245.339844 C 208.550781 245.449219 208.46875 245.539062 208.410156 245.652344 C 208.292969 245.867188 208.1875 246.101562 208.074219 246.316406 C 207.796875 246.867188 207.417969 247.375 206.960938 247.796875 C 206.691406 248.011719 206.355469 248.125 205.996094 248.109375 C 205.707031 248.101562 205.523438 247.894531 205.308594 247.734375 C 205.25 247.695312 205.253906 247.558594 205.257812 247.46875 C 205.285156 247.050781 205.394531 246.652344 205.601562 246.273438 C 205.777344 245.945312 205.984375 245.644531 206.183594 245.324219 C 206.316406 245.101562 206.429688 244.851562 206.5625 244.628906 C 207.039062 243.761719 207.484375 242.894531 207.976562 242.0625 C 208.328125 241.464844 208.75 240.894531 209.140625 240.328125 C 209.175781 240.28125 209.222656 240.238281 209.257812 240.191406 C 209.347656 240.226562 209.421875 240.238281 209.601562 240.292969 L 209.433594 239.96875 C 209.851562 239.367188 210.257812 238.761719 210.683594 238.179688 C 211.328125 237.265625 212.078125 236.441406 212.917969 235.714844 C 213.640625 235.078125 214.417969 234.496094 215.195312 233.925781 C 215.730469 233.535156 216.273438 233.167969 216.84375 232.839844 C 217.417969 232.511719 217.988281 232.199219 218.589844 231.914062 C 219.253906 231.589844 219.910156 231.28125 220.605469 231.03125 C 221.457031 230.703125 222.324219 230.445312 223.21875 230.242188 C 223.992188 230.070312 224.792969 230.027344 225.574219 229.875 C 226.125 229.765625 226.675781 229.84375 227.207031 229.667969 C 227.609375 229.777344 228.003906 229.550781 228.410156 229.660156 C 228.480469 229.675781 228.59375 229.582031 228.679688 229.523438 C 229.246094 229.085938 229.800781 228.644531 230.378906 228.226562 C 231.535156 227.390625 232.761719 226.644531 234.050781 226.015625 C 234.714844 225.695312 235.375 225.339844 236.058594 225.085938 C 236.796875 224.804688 237.566406 224.601562 238.332031 224.378906 C 238.761719 224.253906 239.195312 224.164062 239.640625 224.09375 C 240.148438 224.015625 240.652344 223.980469 241.152344 223.917969 C 241.523438 223.875 241.882812 223.816406 242.25 223.777344 C 242.683594 223.730469 243.105469 223.710938 243.535156 223.679688 C 244.089844 223.636719 244.65625 223.566406 245.203125 223.578125 C 245.582031 223.589844 245.964844 223.554688 246.355469 223.660156 C 246.699219 223.71875 247.058594 223.75 247.402344 223.730469 C 248.023438 223.714844 248.632812 223.765625 249.25 223.882812 C 249.503906 223.9375 249.765625 224.023438 250.039062 223.992188 C 250.160156 223.992188 250.277344 224.007812 250.382812 224.050781 C 251.160156 224.230469 251.941406 224.394531 252.722656 224.59375 C 253.128906 224.703125 253.519531 224.839844 253.910156 225.023438 C 254.570312 225.339844 255.238281 225.675781 255.882812 226.035156 C 256.351562 226.292969 256.742188 226.671875 256.988281 227.148438 C 257.089844 227.359375 257.070312 227.488281 256.835938 227.535156 C 256.570312 227.585938 256.316406 227.609375 256.039062 227.609375 C 255.582031 227.597656 255.136719 227.441406 254.679688 227.355469 C 254.082031 227.230469 253.519531 227.011719 252.898438 226.953125 C 252.542969 226.921875 252.191406 226.753906 251.84375 226.664062 C 251.367188 226.539062 250.886719 226.429688 250.417969 226.339844 C 249.964844 226.238281 249.507812 226.183594 249.042969 226.113281 C 248.828125 226.074219 248.59375 226.042969 248.375 226.050781 C 248.160156 226.058594 247.925781 226.027344 247.71875 225.964844 C 247.390625 225.898438 247.054688 225.859375 246.714844 225.863281 C 246.398438 225.847656 246.074219 225.84375 245.753906 225.839844 C 245.296875 225.832031 244.820312 225.832031 244.359375 225.832031 C 244.171875 225.839844 243.992188 225.859375 243.808594 225.863281 C 243.171875 225.878906 242.542969 225.953125 241.921875 226.050781 C 241.566406 226.09375 241.214844 226.09375 240.847656 226.167969 C 240.769531 226.167969 240.683594 226.148438 240.613281 226.136719 C 240.566406 226.132812 240.492188 226.089844 240.46875 226.109375 C 240.191406 226.355469 239.828125 226.257812 239.515625 226.351562 C 239.171875 226.480469 238.808594 226.550781 238.445312 226.578125 C 238.148438 226.585938 237.941406 226.765625 237.675781 226.8125 C 237.410156 226.863281 237.167969 227.011719 236.925781 227.117188 C 236.492188 227.285156 236.0625 227.441406 235.636719 227.625 C 235.210938 227.8125 234.808594 228.023438 234.398438 228.246094 C 233.988281 228.46875 233.59375 228.695312 233.191406 228.9375 C 232.683594 229.257812 232.167969 229.59375 231.667969 229.933594 C 231.605469 229.972656 231.511719 230.058594 231.429688 230.148438 Z M 222.847656 241.238281 C 222.699219 241.824219 222.566406 242.367188 222.445312 242.914062 C 222.175781 244.078125 222.234375 245.277344 222.617188 246.421875 C 222.75 246.792969 222.808594 247.199219 223.113281 247.515625 C 223.703125 248.140625 224.492188 248.554688 225.335938 248.683594 C 226.027344 248.800781 226.660156 248.558594 227.300781 248.332031 C 227.730469 248.179688 228.140625 247.957031 228.566406 247.769531 C 229.328125 247.425781 229.984375 246.929688 230.640625 246.421875 C 230.890625 246.214844 231.113281 245.996094 231.335938 245.742188 C 231.519531 245.539062 231.671875 245.308594 231.769531 245.058594 C 231.839844 244.917969 231.910156 244.777344 232.007812 244.644531 C 232.246094 244.265625 232.554688 243.910156 232.71875 243.484375 C 232.984375 242.808594 233.414062 242.210938 233.542969 241.484375 C 233.558594 241.441406 233.574219 241.402344 233.597656 241.382812 C 233.65625 241.191406 233.734375 240.992188 233.792969 240.800781 C 233.851562 240.609375 233.875 240.359375 233.957031 240.144531 C 234.128906 239.617188 234.234375 239.074219 234.257812 238.535156 C 234.328125 237.722656 234.292969 236.898438 234.132812 236.089844 C 234.109375 235.957031 234.078125 235.835938 234.035156 235.714844 C 233.789062 234.992188 233.515625 234.273438 233.027344 233.671875 C 232.859375 233.46875 232.679688 233.261719 232.488281 233.082031 C 232.386719 232.996094 232.257812 232.929688 232.121094 232.878906 C 231.800781 232.675781 231.488281 232.492188 231.136719 232.328125 C 230.867188 232.191406 230.5625 232.101562 230.269531 232.066406 C 230.0625 232.046875 229.832031 232.09375 229.667969 232 C 229.308594 231.8125 229.085938 231.988281 228.878906 232.210938 C 228.46875 232.632812 228.039062 233.0625 227.628906 233.484375 C 227.359375 233.746094 227.109375 234.03125 226.867188 234.335938 C 226.335938 235.074219 225.84375 235.832031 225.296875 236.566406 C 224.679688 237.398438 224.21875 238.304688 223.769531 239.226562 C 223.402344 239.894531 223.132812 240.585938 222.847656 241.238281 Z M 222.847656 241.238281"/></g></g></g><g fill="#F00"><g><g><path d="M 5.289062 -34.929688 L 5.289062 0 L 9.28125 0 L 9.28125 -11.027344 L 18.414062 -11.027344 C 27.046875 -11.027344 32.035156 -15.46875 32.035156 -23.203125 C 32.035156 -30.640625 27.046875 -34.929688 18.414062 -34.929688 Z M 9.28125 -31.085938 L 18.261719 -31.085938 C 24.550781 -31.085938 28.195312 -28.394531 28.195312 -23.105469 C 28.195312 -17.664062 24.550781 -14.871094 18.261719 -14.871094 L 9.28125 -14.871094 Z M 9.28125 -31.085938" transform="translate(9.263 209.278)"/></g></g></g><g fill="#F00"><g><g><path d="M 27.394531 -8.832031 L 31.289062 0 L 35.628906 0 L 20.011719 -34.929688 L 15.867188 -34.929688 L 0.199219 0 L 4.441406 0 L 8.332031 -8.832031 Z M 25.699219 -12.675781 L 10.03125 -12.675781 L 17.8125 -30.390625 Z M 25.699219 -12.675781" transform="translate(46.14 209.278)"/></g></g></g><g fill="#F00"><g><g><path d="M 9.28125 -3.792969 L 9.28125 -34.929688 L 5.289062 -34.929688 L 5.289062 0 L 24.601562 0 L 24.601562 -3.792969 Z M 9.28125 -3.792969" transform="translate(85.46 209.278)"/></g></g></g><g fill="#F00"><g><g><path d="M 28.144531 0 L 32.683594 0 L 24.5 -11.875 C 29.539062 -13.523438 32.335938 -17.414062 32.335938 -23.203125 C 32.335938 -30.640625 27.296875 -34.929688 18.5625 -34.929688 L 5.289062 -34.929688 L 5.289062 0 L 9.28125 0 L 9.28125 -11.027344 L 18.5625 -11.027344 C 19.359375 -11.027344 20.160156 -11.078125 20.90625 -11.128906 Z M 9.28125 -14.871094 L 9.28125 -31.085938 L 18.5625 -31.085938 C 24.898438 -31.085938 28.492188 -28.394531 28.492188 -23.105469 C 28.492188 -17.664062 24.898438 -14.871094 18.5625 -14.871094 Z M 9.28125 -14.871094" transform="translate(238.293 209.278)"/></g></g></g><g fill="#F00"><g><g><path d="M 9.28125 0 L 9.28125 -34.929688 L 5.289062 -34.929688 L 5.289062 0 Z M 9.28125 0" transform="translate(277.863 209.278)"/></g></g></g><g fill="#F00"><g><g><path d="M 20.210938 -35.03125 C 10.078125 -35.03125 1.996094 -27.296875 1.996094 -17.515625 C 1.996094 -7.632812 9.980469 0.199219 20.058594 0.199219 C 24.898438 0.199219 29.589844 -1.945312 33.035156 -5.191406 L 30.589844 -7.933594 C 27.84375 -5.339844 24.101562 -3.742188 20.257812 -3.742188 C 12.375 -3.742188 6.039062 -9.878906 6.039062 -17.515625 C 6.039062 -25.199219 12.375 -31.289062 20.257812 -31.289062 C 24.101562 -31.289062 27.894531 -29.640625 30.589844 -26.894531 L 32.984375 -29.941406 C 29.640625 -33.082031 25 -35.03125 20.210938 -35.03125 Z M 20.210938 -35.03125" transform="translate(295.927 209.278)"/></g></g></g><g fill="#F00"><g><g><path d="M 28.941406 0 L 33.832031 0 L 18.960938 -19.761719 L 32.785156 -34.929688 L 28.042969 -34.929688 L 9.28125 -14.820312 L 9.28125 -34.929688 L 5.289062 -34.929688 L 5.289062 0 L 9.28125 0 L 9.28125 -9.132812 L 16.066406 -16.566406 Z M 28.941406 0" transform="translate(334.35 209.278)"/></g></g></g><g mask="url(#k)"><g><g clip-path="url(#l)" transform="translate(174 149)"><g clip-path="url(#m)"><path fill="#024C50" d="M 57.96875 62.28125 L 4.464844 62.28125 C 2.261719 62.28125 0.46875 60.484375 0.46875 58.28125 L 0.46875 4.777344 C 0.46875 2.574219 2.261719 0.78125 4.464844 0.78125 L 57.96875 0.78125 C 60.171875 0.78125 61.96875 2.574219 61.96875 4.777344 L 61.96875 58.28125 C 61.96875 60.484375 60.171875 62.28125 57.96875 62.28125"/></g></g></g></g><path fill="#00C2CB" d="M 231.058594 210.359375 L 177.558594 210.359375 C 175.355469 210.359375 173.558594 208.5625 173.558594 206.359375 L 173.558594 152.859375 C 173.558594 150.652344 175.355469 148.859375 177.558594 148.859375 L 231.058594 148.859375 C 233.265625 148.859375 235.058594 150.652344 235.058594 152.859375 L 235.058594 206.359375 C 235.058594 208.5625 233.265625 210.359375 231.058594 210.359375"/><path fill="#E04E2D" d="M 218.507812 223.582031 L 165.007812 223.582031 C 162.804688 223.582031 161.007812 221.785156 161.007812 219.582031 L 161.007812 166.082031 C 161.007812 163.875 162.804688 162.082031 165.007812 162.082031 L 218.507812 162.082031 C 220.710938 162.082031 222.507812 163.875 222.507812 166.082031 L 222.507812 219.582031 C 222.507812 221.785156 220.710938 223.582031 218.507812 223.582031"/><g fill="#FFF" fill-opacity=".22"><g><g><path d="M 27.625 -16.84375 C 29.46875 -16.257812 30.914062 -15.28125 31.96875 -13.90625 C 33.019531 -12.53125 33.546875 -10.84375 33.546875 -8.84375 C 33.546875 -6 32.441406 -3.8125 30.234375 -2.28125 C 28.023438 -0.757812 24.8125 0 20.59375 0 L 3.84375 0 L 3.84375 -32.390625 L 19.65625 -32.390625 C 23.601562 -32.390625 26.632812 -31.632812 28.75 -30.125 C 30.863281 -28.613281 31.921875 -26.5625 31.921875 -23.96875 C 31.921875 -22.394531 31.539062 -20.988281 30.78125 -19.75 C 30.03125 -18.519531 28.976562 -17.550781 27.625 -16.84375 Z M 11.28125 -26.734375 L 11.28125 -19.109375 L 18.734375 -19.109375 C 20.585938 -19.109375 21.988281 -19.429688 22.9375 -20.078125 C 23.894531 -20.722656 24.375 -21.679688 24.375 -22.953125 C 24.375 -24.210938 23.894531 -25.15625 22.9375 -25.78125 C 21.988281 -26.414062 20.585938 -26.734375 18.734375 -26.734375 Z M 20.03125 -5.640625 C 22.007812 -5.640625 23.5 -5.960938 24.5 -6.609375 C 25.5 -7.265625 26 -8.269531 26 -9.625 C 26 -12.300781 24.007812 -13.640625 20.03125 -13.640625 L 11.28125 -13.640625 L 11.28125 -5.640625 Z M 20.03125 -5.640625" transform="translate(174.202 209.713)"/></g></g></g><path fill="#545454" d="M 157.238281 146.773438 L 148.855469 146.773438 C 148.507812 146.773438 148.226562 146.492188 148.226562 146.148438 L 148.226562 137.765625 C 148.226562 137.417969 148.507812 137.136719 148.855469 137.136719 L 157.238281 137.136719 C 157.582031 137.136719 157.863281 137.417969 157.863281 137.765625 L 157.863281 146.148438 C 157.863281 146.492188 157.582031 146.773438 157.238281 146.773438"/><path fill="#545454" d="M 157.238281 172.710938 L 148.855469 172.710938 C 148.507812 172.710938 148.226562 172.429688 148.226562 172.082031 L 148.226562 163.699219 C 148.226562 163.355469 148.507812 163.074219 148.855469 163.074219 L 157.238281 163.074219 C 157.582031 163.074219 157.863281 163.355469 157.863281 163.699219 L 157.863281 172.082031 C 157.863281 172.429688 157.582031 172.710938 157.238281 172.710938"/><path fill="#545454" d="M 183.398438 146.773438 L 175.015625 146.773438 C 174.671875 146.773438 174.390625 146.492188 174.390625 146.148438 L 174.390625 137.765625 C 174.390625 137.417969 174.671875 137.136719 175.015625 137.136719 L 183.398438 137.136719 C 183.746094 137.136719 184.027344 137.417969 184.027344 137.765625 L 184.027344 146.148438 C 184.027344 146.492188 183.746094 146.773438 183.398438 146.773438"/><path fill="#545454" d="M 170.316406 146.773438 L 161.933594 146.773438 C 161.589844 146.773438 161.308594 146.492188 161.308594 146.148438 L 161.308594 137.765625 C 161.308594 137.417969 161.589844 137.136719 161.933594 137.136719 L 170.316406 137.136719 C 170.664062 137.136719 170.945312 137.417969 170.945312 137.765625 L 170.945312 146.148438 C 170.945312 146.492188 170.664062 146.773438 170.316406 146.773438"/><path fill="#545454" d="M 196.238281 146.773438 L 187.855469 146.773438 C 187.511719 146.773438 187.226562 146.492188 187.226562 146.148438 L 187.226562 137.765625 C 187.226562 137.417969 187.511719 137.136719 187.855469 137.136719 L 196.238281 137.136719 C 196.585938 137.136719 196.867188 137.417969 196.867188 137.765625 L 196.867188 146.148438 C 196.867188 146.492188 196.585938 146.773438 196.238281 146.773438"/><path fill="#545454" d="M 209.320312 146.773438 L 200.9375 146.773438 C 200.589844 146.773438 200.308594 146.492188 200.308594 146.148438 L 200.308594 137.765625 C 200.308594 137.417969 200.589844 137.136719 200.9375 137.136719 L 209.320312 137.136719 C 209.664062 137.136719 209.945312 137.417969 209.945312 137.765625 L 209.945312 146.148438 C 209.945312 146.492188 209.664062 146.773438 209.320312 146.773438"/><path fill="#545454" d="M 157.238281 159.683594 L 148.855469 159.683594 C 148.507812 159.683594 148.226562 159.402344 148.226562 159.054688 L 148.226562 150.671875 C 148.226562 150.328125 148.507812 150.046875 148.855469 150.046875 L 157.238281 150.046875 C 157.582031 150.046875 157.863281 150.328125 157.863281 150.671875 L 157.863281 159.054688 C 157.863281 159.402344 157.582031 159.683594 157.238281 159.683594"/><path fill="#545454" d="M 170.316406 159.683594 L 161.933594 159.683594 C 161.589844 159.683594 161.308594 159.402344 161.308594 159.054688 L 161.308594 150.671875 C 161.308594 150.328125 161.589844 150.046875 161.933594 150.046875 L 170.316406 150.046875 C 170.664062 150.046875 170.945312 150.328125 170.945312 150.671875 L 170.945312 159.054688 C 170.945312 159.402344 170.664062 159.683594 170.316406 159.683594"/><path fill="#545454" d="M 157.238281 185.535156 L 148.855469 185.535156 C 148.507812 185.535156 148.226562 185.253906 148.226562 184.910156 L 148.226562 176.523438 C 148.226562 176.179688 148.507812 175.898438 148.855469 175.898438 L 157.238281 175.898438 C 157.582031 175.898438 157.863281 176.179688 157.863281 176.523438 L 157.863281 184.910156 C 157.863281 185.253906 157.582031 185.535156 157.238281 185.535156"/><path fill="#545454" d="M 157.238281 197.765625 L 148.855469 197.765625 C 148.507812 197.765625 148.226562 197.484375 148.226562 197.136719 L 148.226562 188.753906 C 148.226562 188.410156 148.507812 188.128906 148.855469 188.128906 L 157.238281 188.128906 C 157.582031 188.128906 157.863281 188.410156 157.863281 188.753906 L 157.863281 197.136719 C 157.863281 197.484375 157.582031 197.765625 157.238281 197.765625"/></svg>